<?xml version="1.0" encoding="UTF-8" standalone="no"?>
<svg
   xmlns:a="http://ns.adobe.com/AdobeSVGViewerExtensions/3.0/"
   xmlns:dc="http://purl.org/dc/elements/1.1/"
   xmlns:cc="http://creativecommons.org/ns#"
   xmlns:rdf="http://www.w3.org/1999/02/22-rdf-syntax-ns#"
   xmlns:svg="http://www.w3.org/2000/svg"
   xmlns="http://www.w3.org/2000/svg"
   xmlns:xlink="http://www.w3.org/1999/xlink"
   xmlns:sodipodi="http://sodipodi.sourceforge.net/DTD/sodipodi-0.dtd"
   xmlns:inkscape="http://www.inkscape.org/namespaces/inkscape"
   width="1792"
   height="1792"
   viewBox="0 0 1792 1792"
   id="svg4199"
   version="1.1"
   inkscape:version="0.91 r13725"
   sodipodi:docname="icon.svg">
  <metadata
     id="metadata4207">
    <rdf:RDF>
      <cc:Work
         rdf:about="">
        <dc:format>image/svg+xml</dc:format>
        <dc:type
           rdf:resource="http://purl.org/dc/dcmitype/StillImage" />
        <dc:title></dc:title>
      </cc:Work>
    </rdf:RDF>
  </metadata>
  <defs
     id="defs4205">
    <linearGradient
       gradientTransform="translate(847.72809,879.5)"
       id="SVGID_18_"
       gradientUnits="userSpaceOnUse"
       x1="7"
       y1="15"
       x2="7"
       y2="18">
      <stop
         offset="0"
         style="stop-color:#8E8E8E"
         id="stop4784" />
      <stop
         offset="4.191053e-02"
         style="stop-color:#8A8A8A"
         id="stop4786" />
      <stop
         offset="0.4613"
         style="stop-color:#626262"
         id="stop4788" />
      <stop
         offset="0.7952"
         style="stop-color:#4A4A4A"
         id="stop4790" />
      <stop
         offset="1"
         style="stop-color:#414141"
         id="stop4792" />
      <a:midPointStop
         offset="0"
         style="stop-color:#8E8E8E" />
      <a:midPointStop
         offset="0.4"
         style="stop-color:#8E8E8E" />
      <a:midPointStop
         offset="1"
         style="stop-color:#414141" />
    </linearGradient>
    <linearGradient
       inkscape:collect="always"
       xlink:href="#SVGID_18_"
       id="linearGradient5387"
       x1="128"
       y1="896"
       x2="1664"
       y2="896"
       gradientUnits="userSpaceOnUse" />
  </defs>
  <sodipodi:namedview
     pagecolor="#ffffff"
     bordercolor="#666666"
     borderopacity="1"
     objecttolerance="10"
     gridtolerance="10"
     guidetolerance="10"
     inkscape:pageopacity="0"
     inkscape:pageshadow="2"
     inkscape:window-width="1180"
     inkscape:window-height="932"
     id="namedview4203"
     showgrid="false"
     inkscape:zoom="0.28469729"
     inkscape:cx="552.06943"
     inkscape:cy="1009.0922"
     inkscape:window-x="2153"
     inkscape:window-y="174"
     inkscape:window-maximized="0"
     inkscape:current-layer="svg4199" />
  <path
     d="m 128,896 q 0,156 61,298 61,142 164,245 103,103 245,164 142,61 298,61 172,0 327,-72.5 155,-72.5 264,-204.5 7,-10 6.5,-22.5 -0.5,-12.5 -8.5,-20.5 l -137,-138 q -10,-9 -25,-9 -16,2 -23,12 -73,95 -179,147 -106,52 -225,52 -104,0 -198.5,-40.5 Q 603,1327 534,1258 465,1189 424.5,1094.5 384,1000 384,896 384,792 424.5,697.5 465,603 534,534 603,465 697.5,424.5 792,384 896,384 q 98,0 188,35.5 90,35.5 160,101.5 l -137,138 q -31,30 -14,69 17,40 59,40 l 448,0 q 26,0 45,-19 19,-19 19,-45 l 0,-448 q 0,-42 -40,-59 -39,-17 -69,14 L 1425,340 Q 1318,239 1180.5,183.5 1043,128 896,128 740,128 598,189 456,250 353,353 250,456 189,598 128,740 128,896 Z m 640,-288 0,448 q 0,14 9,23 9,9 23,9 l 320,0 q 14,0 23,-9 9,-9 9,-23 l 0,-64 q 0,-14 -9,-23 -9,-9 -23,-9 l -224,0 0,-352 q 0,-14 -9,-23 -9,-9 -23,-9 l -64,0 q -14,0 -23,9 -9,9 -9,23 z"
     id="path4201"
     inkscape:connector-curvature="0"
     inkscape:export-filename="/home/dan/Desktop/icon96.png"
     inkscape:export-xdpi="5.625"
     inkscape:export-ydpi="5.625"
     style="fill-opacity:1.0;fill:url(#linearGradient5387)" />
  <rect
     x="849.72809"
     y="894.5"
     style="overflow:visible;fill:url(#SVGID_18_)"
     width="10"
     height="3"
     id="rect4794" />
</svg>
