<?xml version="1.0" encoding="utf-8"?>
<!-- Generator: Adobe Illustrator 26.1.0, SVG Export Plug-In . SVG Version: 6.00 Build 0)  -->
<svg version="1.1" id="Layer_1" xmlns="http://www.w3.org/2000/svg" xmlns:xlink="http://www.w3.org/1999/xlink" x="0px" y="0px"
	 viewBox="0 0 74.4 74.4" style="enable-background:new 0 0 74.4 74.4;" xml:space="preserve">
<g>
	<path d="M46.1,39.4h-8.6V25.9c0-0.4-0.1-0.7-0.3-0.9c-0.2-0.2-0.5-0.3-0.9-0.3h-2.5c-0.4,0-0.6,0.1-0.9,0.3
		c-0.2,0.2-0.3,0.5-0.3,0.9V43c0,0.4,0.1,0.6,0.3,0.9c0.2,0.2,0.5,0.3,0.9,0.3h12.2c0.4,0,0.7-0.1,0.9-0.3c0.2-0.2,0.3-0.5,0.3-0.9
		v-2.5c0-0.4-0.1-0.7-0.3-0.9C46.7,39.5,46.4,39.4,46.1,39.4z"/>
	<path d="M64.4,12.5l-6.6,6.6L56,17.4c-2.5-2.4-5.4-4.2-8.6-5.5c-3.2-1.3-6.6-1.9-10-1.9c-3.6,0-7.1,0.7-10.4,2.1
		c-3.3,1.4-6.2,3.4-8.6,5.8c-2.4,2.4-4.3,5.3-5.8,8.6c-1.4,3.3-2.1,6.8-2.1,10.4v0c0,3.6,0.7,7.1,2.1,10.4c1.4,3.3,3.4,6.2,5.8,8.6
		c2.4,2.4,5.3,4.3,8.6,5.8c3.3,1.4,6.8,2.1,10.4,2.1c0,0,0,0,0,0c4,0,7.9-0.9,11.5-2.5c3.3-1.5,6.1-3.6,8.5-6.3L54,51.5
		c-1.9,2.2-4.2,4-6.8,5.2c-3,1.5-6.3,2.2-9.7,2.2c0,0,0,0,0,0c-3,0-5.9-0.6-8.6-1.8c-2.7-1.2-5.1-2.7-7-4.7c-2-2-3.6-4.3-4.7-7
		c-1.2-2.7-1.7-5.6-1.8-8.6c0-3,0.6-5.9,1.8-8.6c1.2-2.7,2.7-5.1,4.7-7c2-2,4.3-3.6,7-4.7c2.7-1.2,5.6-1.7,8.6-1.8
		c2.8,0,5.5,0.5,8.1,1.5c2.6,1,4.9,2.5,6.9,4.4l1.8,1.7l-7,7l17.1,0L64.4,12.5z"/>
</g>
</svg>
